# xmcd
#
# Track frame offsets: 
#        150
#        11634
#        26807
#        41442
#        56825
#        74842
#        87947
#        101055
#        116225
#        130989
#        144647
#        162367
#        176485
#        190604
#        203037
#        223207
#        240560
#        256612
#        269532
#        283474
#        295811
#        310281
#        323982
#        339369
#
# Disc length: 4673 seconds
#
# Revision: 2
# Processed by: cddbd v1.5.2PL0 Copyright (c) Steve Scherf et al.
# Submitted via: ExactAudioCopy v1.3
#
DISCID=7d123f18
DTITLE=尾崎紀世彦 - -SPECIAL BoX-尾崎紀世彦の世界 disc 3
DYEAR=2013
DGENRE=JPop
TTITLE0=ゴッドファーザー・愛のテーマ
TTITLE1=愛をもう一度
TTITLE2=故郷へ帰ろう
TTITLE3=オーブレイ
TTITLE4=帰り来ぬ青春
TTITLE5=酒とバラの日々
TTITLE6=ある愛の詩
TTITLE7=ブラザー・サン、シスター・ムーン
TTITLE8=ロミオとジュリエット
TTITLE9=サバの女王
TTITLE10=タワーリング・インフェルノ(愛のテーマ)
TTITLE11=追憶
TTITLE12=おもいでの夏
TTITLE13=愛の潮風(ダブのテーマ)
TTITLE14=やさしく歌って
TTITLE15=アンチェインド・メロディー
TTITLE16=マイ・ボーイ
TTITLE17=ハワイアン・ウェディング・ソング (ライブ)
TTITLE18=五月のバラ
TTITLE19=愛のフィナーレ
TTITLE20=ドゥー・ユー・ノウ
TTITLE21=LOVERS and FOOLS (また逢う日まで 英語版)
TTITLE22=枯葉 (ライブ)
TTITLE23=愛はひとり (ライブ)
EXTD=
EXTT0=
EXTT1=
EXTT2=
EXTT3=
EXTT4=
EXTT5=
EXTT6=
EXTT7=
EXTT8=
EXTT9=
EXTT10=
EXTT11=
EXTT12=
EXTT13=
EXTT14=
EXTT15=
EXTT16=
EXTT17=
EXTT18=
EXTT19=
EXTT20=
EXTT21=
EXTT22=
EXTT23=
PLAYORDER=
